HIERARCHY
ROOT hips
{
	OFFSET -0.003675 0.299928 -0.021708
	CHANNELS 6 Xposition Yposition Zposition Xrotation Yrotation Zrotation
	JOINT LowerBack
	{
		OFFSET 0.000919 0.177588 0.009275
		CHANNELS 3 Xrotation Yrotation Zrotation
		JOINT spine
		{
			OFFSET 0.000919 0.177588 0.009275
			CHANNELS 3 Xrotation Yrotation Zrotation
			JOINT chest
			{
				OFFSET 0.000456 0.100015 0.004638
				CHANNELS 3 Xrotation Yrotation Zrotation
				JOINT neck
				{
					OFFSET 0.000456 0.100015 0.004638
					CHANNELS 3 Xrotation Yrotation Zrotation
					JOINT head
					{
						OFFSET 0.000924 0.155147 0.009274
						CHANNELS 6 Xposition Yposition Zposition Xrotation Yrotation Zrotation
						End Site
						{
							OFFSET 0.000000 0.153400 0.000000
						}
					}
				}
				JOINT shoulder.L
				{
					OFFSET 0.019937 0.078966 0.057518
					CHANNELS 6 Xposition Yposition Zposition Yrotation Xrotation Zrotation
					JOINT upper_arm.L
					{
						OFFSET 0.177024 -0.020465 -0.095062
						CHANNELS 6 Xposition Yposition Zposition Xrotation Yrotation Zrotation
						JOINT forearm.L
						{
							OFFSET 0.247100 -0.135500 -0.061800
							CHANNELS 3 Xrotation Yrotation Zrotation
							JOINT hand.L
							{
								OFFSET 0.217000 -0.143000 0.039300
								CHANNELS 3 Xrotation Yrotation Zrotation
								JOINT palm.01.L
								{
									OFFSET 0.021770 -0.038291 0.012954
									CHANNELS 6 Xposition Yposition Zposition Yrotation Xrotation Zrotation
									JOINT f_index.01.L
									{
										OFFSET 0.053215 -0.044137 0.008236
										CHANNELS 3 Xrotation Yrotation Zrotation
										JOINT f_index.02.L
										{
											OFFSET 0.036108 -0.024723 -0.010656
											CHANNELS 3 Xrotation Yrotation Zrotation
											JOINT f_index.03.L
											{
												OFFSET 0.021342 -0.014948 -0.010846
												CHANNELS 3 Xrotation Yrotation Zrotation
												End Site
												{
													OFFSET 0.015600 -0.009860 -0.013421
												}
											}
										}
									}
									JOINT thumb.01.L
									{
										OFFSET -0.009090 -0.002348 -0.024223
										CHANNELS 6 Xposition Yposition Zposition Xrotation Yrotation Zrotation
										JOINT thumb.02.L
										{
											OFFSET 0.019713 -0.035076 -0.011120
											CHANNELS 3 Xrotation Yrotation Zrotation
											JOINT thumb.03.L
											{
												OFFSET 0.024877 -0.021748 -0.005176
												CHANNELS 3 Xrotation Yrotation Zrotation
												End Site
												{
													OFFSET 0.016125 -0.013029 -0.001569
												}
											}
										}
									}
								}
								JOINT palm.02.L
								{
									OFFSET 0.032823 -0.025104 0.012281
									CHANNELS 6 Xposition Yposition Zposition Yrotation Xrotation Zrotation
									JOINT f_middle.01.L
									{
										OFFSET 0.055723 -0.038469 0.008037
										CHANNELS 3 Xrotation Yrotation Zrotation
										JOINT f_middle.02.L
										{
											OFFSET 0.038167 -0.027473 -0.015582
											CHANNELS 3 Xrotation Yrotation Zrotation
											JOINT f_middle.03.L
											{
												OFFSET 0.021707 -0.016587 -0.017037
												CHANNELS 3 Xrotation Yrotation Zrotation
												End Site
												{
													OFFSET 0.014112 -0.010584 -0.014294
												}
											}
										}
									}
								}
								JOINT palm.03.L
								{
									OFFSET 0.039230 -0.011402 0.008390
									CHANNELS 6 Xposition Yposition Zposition Yrotation Xrotation Zrotation
									JOINT f_ring.01.L
									{
										OFFSET 0.061796 -0.031470 0.007910
										CHANNELS 3 Xrotation Yrotation Zrotation
										JOINT f_ring.02.L
										{
											OFFSET 0.033092 -0.023401 -0.019127
											CHANNELS 3 Xrotation Yrotation Zrotation
											JOINT f_ring.03.L
											{
												OFFSET 0.021392 -0.015362 -0.017824
												CHANNELS 3 Xrotation Yrotation Zrotation
												End Site
												{
													OFFSET 0.008670 -0.007297 -0.014686
												}
											}
										}
									}
								}
								JOINT palm.04.L
								{
									OFFSET 0.043417 0.002450 0.002889
									CHANNELS 6 Xposition Yposition Zposition Yrotation Xrotation Zrotation
									JOINT f_pinky.01.L
									{
										OFFSET 0.069986 -0.026156 0.003627
										CHANNELS 3 Xrotation Yrotation Zrotation
										JOINT f_pinky.02.L
										{
											OFFSET 0.018520 -0.012813 -0.016429
											CHANNELS 3 Xrotation Yrotation Zrotation
											JOINT f_pinky.03.L
											{
												OFFSET 0.013822 -0.009796 -0.014947
												CHANNELS 3 Xrotation Yrotation Zrotation
												End Site
												{
													OFFSET 0.007238 -0.006103 -0.011657
												}
											}
										}
									}
								}
							}
						}
					}
				}
				JOINT shoulder.R
				{
					OFFSET -0.016662 0.078957 0.057696
					CHANNELS 6 Xposition Yposition Zposition Yrotation Xrotation Zrotation
					JOINT upper_arm.R
					{
						OFFSET -0.176972 -0.020537 -0.095144
						CHANNELS 6 Xposition Yposition Zposition Xrotation Yrotation Zrotation
						JOINT forearm.R
						{
							OFFSET -0.247100 -0.135500 -0.061800
							CHANNELS 3 Xrotation Yrotation Zrotation
							JOINT hand.R
							{
								OFFSET -0.217000 -0.143000 0.039300
								CHANNELS 3 Xrotation Yrotation Zrotation
								JOINT palm.01.R
								{
									OFFSET -0.021773 -0.038278 0.012988
									CHANNELS 6 Xposition Yposition Zposition Yrotation Xrotation Zrotation
									JOINT f_index.01.R
									{
										OFFSET -0.053212 -0.044139 0.008249
										CHANNELS 3 Xrotation Yrotation Zrotation
										JOINT f_index.02.R
										{
											OFFSET -0.036049 -0.024835 -0.010634
											CHANNELS 3 Xrotation Yrotation Zrotation
											JOINT f_index.03.R
											{
												OFFSET -0.021371 -0.014881 -0.010866
												CHANNELS 3 Xrotation Yrotation Zrotation
												End Site
												{
													OFFSET -0.015584 -0.009883 -0.013422
												}
											}
										}
									}
									JOINT thumb.01.R
									{
										OFFSET 0.009113 -0.002381 -0.024211
										CHANNELS 6 Xposition Yposition Zposition Xrotation Yrotation Zrotation
										JOINT thumb.02.R
										{
											OFFSET -0.019694 -0.035097 -0.011088
											CHANNELS 3 Xrotation Yrotation Zrotation
											JOINT thumb.03.R
											{
												OFFSET -0.024867 -0.021762 -0.005168
												CHANNELS 3 Xrotation Yrotation Zrotation
												End Site
												{
													OFFSET -0.016120 -0.013036 -0.001565
												}
											}
										}
									}
								}
								JOINT palm.02.R
								{
									OFFSET -0.032828 -0.025095 0.012286
									CHANNELS 6 Xposition Yposition Zposition Yrotation Xrotation Zrotation
									JOINT f_middle.01.R
									{
										OFFSET -0.055721 -0.038472 0.008040
										CHANNELS 3 Xrotation Yrotation Zrotation
										JOINT f_middle.02.R
										{
											OFFSET -0.038101 -0.027593 -0.015557
											CHANNELS 3 Xrotation Yrotation Zrotation
											JOINT f_middle.03.R
											{
												OFFSET -0.021730 -0.016530 -0.017054
												CHANNELS 3 Xrotation Yrotation Zrotation
												End Site
												{
													OFFSET -0.014096 -0.010608 -0.014293
												}
											}
										}
									}
								}
								JOINT palm.03.R
								{
									OFFSET -0.039192 -0.011488 0.008390
									CHANNELS 6 Xposition Yposition Zposition Yrotation Xrotation Zrotation
									JOINT f_ring.01.R
									{
										OFFSET -0.061839 -0.031387 0.007876
										CHANNELS 3 Xrotation Yrotation Zrotation
										JOINT f_ring.02.R
										{
											OFFSET -0.033068 -0.023437 -0.019125
											CHANNELS 3 Xrotation Yrotation Zrotation
											JOINT f_ring.03.R
											{
												OFFSET -0.021371 -0.015393 -0.017822
												CHANNELS 3 Xrotation Yrotation Zrotation
												End Site
												{
													OFFSET -0.008654 -0.007321 -0.014684
												}
											}
										}
									}
								}
								JOINT palm.04.R
								{
									OFFSET -0.043421 0.002443 0.002845
									CHANNELS 6 Xposition Yposition Zposition Yrotation Xrotation Zrotation
									JOINT f_pinky.01.R
									{
										OFFSET -0.069983 -0.026169 0.003599
										CHANNELS 3 Xrotation Yrotation Zrotation
										JOINT f_pinky.02.R
										{
											OFFSET -0.018501 -0.012842 -0.016428
											CHANNELS 3 Xrotation Yrotation Zrotation
											JOINT f_pinky.03.R
											{
												OFFSET -0.013806 -0.009821 -0.014946
												CHANNELS 3 Xrotation Yrotation Zrotation
												End Site
												{
													OFFSET -0.007226 -0.006121 -0.011655
												}
											}
										}
									}
								}
							}
						}
					}
				}
			}
		}
	}
	JOINT pelvis.L
	{
		OFFSET 0.000000 0.000000 0.000000
		CHANNELS 6 Xposition Yposition Zposition Xrotation Yrotation Zrotation
		JOINT thigh.L
		{
			OFFSET 0.101675 0.001054 -0.000000
			CHANNELS 3 Xrotation Yrotation Zrotation
			JOINT shin.L
			{
				OFFSET 0.000000 -0.534800 0.041000
				CHANNELS 3 Xrotation Yrotation Zrotation
				JOINT foot.L
				{
					OFFSET 0.000000 -0.452000 -0.044800
					CHANNELS 3 Xrotation Yrotation Zrotation
					JOINT toe.L
					{
						OFFSET -0.000000 -0.068500 0.109600
						CHANNELS 3 Xrotation Yrotation Zrotation
						End Site
						{
							OFFSET -0.000000 0.000000 0.067200
						}
					}
				}
				JOINT heel.L
				{
					OFFSET 0.000000 -0.452000 -0.044800
					CHANNELS 3 Xrotation Yrotation Zrotation
					JOINT heel.02.L
					{
						OFFSET -0.038000 -0.085200 0.016200
						CHANNELS 6 Xposition Yposition Zposition Xrotation Yrotation Zrotation
						End Site
						{
							OFFSET 0.080000 -0.000000 0.000000
						}
					}
				}
			}
		}
	}
	JOINT pelvis.R
	{
		OFFSET 0.000000 0.000000 0.000000
		CHANNELS 6 Xposition Yposition Zposition Xrotation Yrotation Zrotation
		JOINT thigh.R
		{
			OFFSET -0.094325 0.001054 0.000000
			CHANNELS 3 Xrotation Yrotation Zrotation
			JOINT shin.R
			{
				OFFSET 0.000000 -0.534800 0.041000
				CHANNELS 3 Xrotation Yrotation Zrotation
				JOINT foot.R
				{
					OFFSET 0.000000 -0.452000 -0.044800
					CHANNELS 3 Xrotation Yrotation Zrotation
					JOINT toe.R
					{
						OFFSET -0.000000 -0.068500 0.109600
						CHANNELS 3 Xrotation Yrotation Zrotation
						End Site
						{
							OFFSET -0.000000 0.000000 0.067200
						}
					}
				}
				JOINT heel.R
				{
					OFFSET 0.000000 -0.452000 -0.044800
					CHANNELS 3 Xrotation Yrotation Zrotation
					JOINT heel.02.R
					{
						OFFSET 0.038000 -0.085200 0.016200
						CHANNELS 6 Xposition Yposition Zposition Xrotation Yrotation Zrotation
						End Site
						{
							OFFSET -0.080000 0.000000 -0.000000
						}
					}
				}
			}
		}
	}
}
MOTION
Frames: 4
Frame Time: 0.041667
-0.003764 0.215832 0.005154 33.284448 4.275362 90.338070 -0.000000 -0.000000 -0.000000 -0.000001 -0.000003 0.000000 -0.000000 0.000000 -0.000000 0.000001 -0.000000 -0.000000 0.000924 0.155147 0.009274 -7.338647 0.024499 -4.430982 0.019937 0.078966 0.057518 -32.290590 11.162708 56.453375 0.177024 -0.020466 -0.095062 -50.652847 40.919144 -83.122296 -34.930588 -10.258489 -45.704880 0.000001 0.000000 0.000001 0.021770 -0.038291 0.012954 -0.000000 0.000002 0.000001 -0.000001 -0.000001 0.000001 0.000003 0.000001 0.000010 -0.000001 0.000001 0.000002 -0.009090 -0.002348 -0.024223 0.000002 -0.000001 -0.000003 -0.000001 0.000001 -0.000000 -0.000000 0.000001 0.000003 0.032823 -0.025104 0.012281 0.000001 -0.000002 0.000007 -0.000001 0.000000 -0.000007 0.000001 0.000000 0.000001 -0.000003 -0.000006 0.000000 0.039230 -0.011402 0.008390 0.000002 -0.000004 0.000006 0.000001 0.000004 0.000001 0.000003 0.000003 -0.000001 0.000002 -0.000002 0.000003 0.043417 0.002450 0.002889 -0.000001 0.000001 0.000002 -0.000000 -0.000005 -0.000000 0.000002 -0.000003 0.000001 -0.000003 0.000000 0.000002 -0.016662 0.078957 0.057696 -27.124563 10.363170 -34.933539 -0.176972 -0.020537 -0.095144 -30.379435 -13.963095 61.430079 -54.279838 9.670924 50.279550 -0.000001 0.000001 0.000002 -0.021773 -0.038278 0.012988 0.000003 0.000001 0.000000 -0.000001 -0.000001 -0.000006 -0.000002 0.000001 -0.000001 0.000002 0.000002 0.000009 0.009114 -0.002381 -0.024212 0.000000 -0.000004 -0.000003 0.000000 -0.000001 0.000004 0.000000 -0.000002 0.000003 -0.032828 -0.025095 0.012286 0.000003 0.000001 -0.000003 -0.000001 0.000001 -0.000003 -0.000001 -0.000005 -0.000004 -0.000004 -0.000001 -0.000004 -0.039192 -0.011488 0.008390 0.000001 0.000004 -0.000004 -0.000004 0.000002 -0.000003 0.000002 0.000000 0.000002 0.000000 -0.000004 0.000000 -0.043421 0.002443 0.002845 0.000001 0.000003 -0.000003 -0.000003 0.000004 -0.000002 0.000002 -0.000003 0.000002 -0.000000 0.000001 -0.000001 -0.000000 0.000000 -0.000000 -1.537711 1.083488 -14.424861 27.170530 -1.278004 -18.179349 18.331511 0.749103 -7.578277 0.000000 0.000003 -0.000000 0.000000 -0.000001 -0.000001 -0.000002 0.000000 -0.000001 -0.038000 -0.085200 0.016200 0.000001 -0.000001 -0.000002 -0.000000 0.000000 -0.000000 -1.470217 1.066870 -13.191946 20.021626 0.124519 2.654516 21.307018 1.459594 -14.896299 -0.000002 -0.000001 -0.000001 0.000004 -0.000003 -0.000001 0.000005 -0.000002 -0.000001 0.038000 -0.085200 0.016200 -0.000002 0.000000 0.000001 
-0.006019 0.211794 0.002005 55.586508 4.317764 87.432473 -0.000001 -0.000001 0.000000 0.000000 0.000002 -0.000000 0.000000 0.000003 -0.000000 0.000001 0.000002 0.000000 0.000924 0.155147 0.009274 -7.137854 0.025160 2.481554 0.019937 0.078966 0.057518 -20.497739 8.366714 51.701298 0.177024 -0.020465 -0.095062 -55.888368 32.546657 -70.583462 -41.514921 -15.212221 -40.860736 -0.000003 0.000000 0.000001 0.021770 -0.038291 0.012954 0.000001 -0.000001 -0.000000 -0.000001 -0.000001 -0.000000 -0.000000 -0.000001 0.000005 -0.000002 0.000003 0.000000 -0.009090 -0.002348 -0.024224 -0.000002 -0.000001 -0.000003 -0.000001 -0.000001 0.000001 -0.000000 0.000001 0.000001 0.032823 -0.025104 0.012281 -0.000001 0.000000 0.000002 0.000001 0.000000 -0.000002 -0.000004 -0.000001 -0.000000 -0.000001 -0.000002 0.000004 0.039230 -0.011402 0.008390 0.000001 0.000002 0.000004 0.000002 0.000000 -0.000000 -0.000001 0.000007 -0.000001 0.000002 -0.000004 0.000000 0.043417 0.002450 0.002889 -0.000000 0.000002 -0.000000 -0.000001 -0.000003 -0.000002 0.000000 0.000001 -0.000001 0.000002 0.000000 -0.000003 -0.016662 0.078957 0.057696 -14.134118 7.449480 -36.941334 -0.176972 -0.020537 -0.095144 -40.346720 -16.630264 61.157213 -53.005710 5.187982 55.445809 0.000001 0.000001 0.000000 -0.021773 -0.038278 0.012988 0.000000 -0.000000 0.000002 -0.000003 0.000002 -0.000003 -0.000001 -0.000000 -0.000004 0.000002 0.000003 -0.000000 0.009114 -0.002381 -0.024212 -0.000001 -0.000004 0.000000 -0.000000 0.000001 -0.000001 0.000003 0.000000 -0.000003 -0.032828 -0.025095 0.012286 -0.000000 0.000002 -0.000003 0.000001 0.000002 0.000004 -0.000000 -0.000004 -0.000007 -0.000001 0.000002 -0.000007 -0.039192 -0.011488 0.008390 0.000002 0.000006 0.000003 -0.000001 0.000004 -0.000002 0.000001 -0.000004 -0.000002 -0.000000 0.000005 0.000001 -0.043421 0.002443 0.002844 0.000001 0.000002 0.000004 -0.000006 -0.000001 -0.000000 0.000000 -0.000003 0.000002 -0.000002 0.000002 -0.000003 0.000000 0.000000 -0.000000 -1.625762 1.382427 -17.613060 18.346272 -1.472082 -20.396789 11.394075 1.244046 -12.654141 0.000000 -0.000001 0.000001 0.000002 -0.000003 0.000000 0.000002 0.000001 0.000002 -0.038000 -0.085200 0.016200 -0.000003 0.000004 0.000003 0.000000 0.000000 -0.000000 -1.545308 1.357798 -16.380810 12.593310 0.129050 2.223760 15.341462 2.326106 -24.194010 0.000000 -0.000000 -0.000003 0.000004 0.000003 -0.000000 0.000002 0.000002 0.000001 0.038000 -0.085200 0.016200 -0.000002 0.000002 -0.000003 
-0.006341 0.213290 0.002631 57.409393 14.656802 86.481403 0.000001 -0.000003 0.000000 -0.000001 0.000000 -0.000001 -0.000002 0.000000 0.000001 -0.000001 -0.000003 -0.000000 0.000924 0.155147 0.009274 -8.377826 0.030048 0.889770 0.019937 0.078966 0.057518 -19.777192 6.252800 44.853442 0.177025 -0.020465 -0.095062 -42.452894 29.549075 -78.537046 -34.392127 -16.669352 -34.852024 -0.000003 -0.000000 -0.000000 0.021770 -0.038291 0.012954 -0.000002 0.000002 -0.000004 -0.000002 0.000000 0.000001 0.000003 -0.000003 0.000005 -0.000001 0.000003 -0.000003 -0.009090 -0.002348 -0.024224 -0.000001 0.000001 0.000007 -0.000000 -0.000002 0.000003 0.000001 -0.000003 -0.000002 0.032823 -0.025104 0.012281 -0.000001 0.000002 0.000002 0.000000 0.000004 -0.000003 -0.000006 0.000000 0.000001 -0.000000 -0.000001 -0.000005 0.039230 -0.011402 0.008390 -0.000001 0.000000 0.000001 -0.000003 -0.000002 0.000001 -0.000000 0.000005 0.000001 -0.000001 -0.000004 0.000003 0.043417 0.002450 0.002889 -0.000004 0.000003 -0.000005 -0.000002 -0.000008 -0.000000 -0.000005 -0.000003 -0.000004 0.000000 -0.000003 -0.000001 -0.016662 0.078956 0.057696 -12.007834 5.887251 -33.777703 -0.176972 -0.020537 -0.095144 -35.379103 -13.875818 58.142996 -44.836930 10.042540 50.177677 -0.000002 -0.000003 0.000001 -0.021773 -0.038278 0.012988 0.000002 -0.000000 0.000000 -0.000000 -0.000000 -0.000001 -0.000003 -0.000000 -0.000001 0.000002 0.000000 0.000004 0.009114 -0.002381 -0.024211 0.000001 -0.000002 -0.000003 -0.000000 0.000006 0.000001 0.000002 -0.000002 -0.000001 -0.032828 -0.025095 0.012286 0.000002 -0.000000 0.000001 0.000002 0.000003 0.000002 0.000001 0.000000 -0.000002 -0.000003 0.000003 -0.000002 -0.039192 -0.011488 0.008390 0.000000 0.000001 0.000005 0.000001 0.000001 -0.000002 -0.000000 0.000003 0.000000 -0.000001 0.000003 -0.000000 -0.043421 0.002443 0.002844 0.000001 -0.000001 0.000002 -0.000003 0.000003 -0.000004 -0.000002 0.000003 0.000002 -0.000002 0.000002 -0.000001 0.000000 0.000000 0.000000 -1.718923 1.515591 -18.764908 12.191938 -1.448433 -19.713082 1.984716 0.829203 -8.394591 0.000000 -0.000000 0.000000 -0.000003 0.000004 0.000000 0.000003 0.000000 -0.000002 -0.038000 -0.085200 0.016200 -0.000000 0.000007 -0.000001 0.000000 0.000000 0.000000 -1.630724 1.486641 -17.533038 6.539819 0.188017 2.572976 19.567626 2.280846 -23.693460 0.000000 0.000004 0.000000 -0.000003 0.000002 -0.000001 0.000005 0.000000 0.000000 0.038000 -0.085200 0.016200 0.000000 0.000002 0.000001 
-0.007286 0.216112 -0.000326 57.437779 22.257334 87.176074 -0.000001 -0.000002 0.000001 -0.000000 0.000002 -0.000001 -0.000001 -0.000002 -0.000000 -0.000002 -0.000001 -0.000000 0.000924 0.155148 0.009274 -2.928772 0.013688 -2.066782 0.019937 0.078966 0.057518 -29.820691 8.146370 48.266932 0.177024 -0.020465 -0.095062 -40.532699 33.848416 -85.235064 -21.005378 -17.802048 -16.524690 -0.000001 -0.000001 0.000001 0.021770 -0.038291 0.012954 0.000005 0.000002 0.000005 -0.000003 0.000000 -0.000000 0.000003 0.000001 0.000001 0.000004 0.000000 -0.000001 -0.009090 -0.002348 -0.024224 -0.000002 -0.000001 0.000001 0.000001 -0.000005 0.000001 0.000003 0.000003 -0.000002 0.032823 -0.025104 0.012281 0.000005 0.000001 0.000002 0.000001 -0.000002 -0.000005 -0.000003 -0.000001 0.000001 -0.000003 0.000001 0.000003 0.039230 -0.011402 0.008390 0.000004 -0.000000 0.000006 0.000001 0.000003 -0.000000 0.000001 0.000003 0.000003 -0.000001 0.000002 0.000003 0.043417 0.002450 0.002889 0.000003 0.000002 -0.000003 -0.000003 -0.000009 -0.000002 -0.000000 0.000004 0.000001 -0.000000 -0.000002 -0.000001 -0.016662 0.078957 0.057696 -25.244615 9.423534 -36.069204 -0.176972 -0.020537 -0.095144 -38.675004 -15.591770 61.995749 -33.649938 9.375407 48.626128 -0.000001 0.000005 -0.000001 -0.021773 -0.038278 0.012988 0.000001 -0.000003 -0.000002 -0.000002 0.000007 -0.000001 -0.000003 0.000003 -0.000008 0.000001 -0.000000 -0.000003 0.009114 -0.002381 -0.024211 0.000001 0.000001 0.000003 0.000002 -0.000003 0.000002 0.000003 -0.000005 -0.000003 -0.032828 -0.025095 0.012286 -0.000002 -0.000002 -0.000001 -0.000001 0.000003 -0.000001 -0.000000 -0.000001 -0.000002 -0.000000 -0.000001 -0.000004 -0.039192 -0.011488 0.008390 -0.000003 -0.000001 -0.000002 0.000001 -0.000001 0.000000 0.000002 -0.000003 0.000003 -0.000005 0.000001 -0.000002 -0.043421 0.002443 0.002844 0.000002 -0.000001 -0.000001 -0.000004 0.000005 -0.000001 -0.000002 -0.000003 0.000003 0.000002 0.000003 0.000002 0.000000 0.000000 0.000000 -1.691940 1.268805 -16.105516 -2.498118 -1.547431 -20.188506 -0.636711 0.901182 -9.129549 -0.000003 0.000002 -0.000003 -0.000001 0.000001 -0.000001 0.000000 0.000003 -0.000004 -0.038000 -0.085200 0.016200 0.000003 0.000001 -0.000002 -0.000000 0.000000 0.000000 -1.613378 1.247007 -14.873053 -7.459312 0.514473 5.851630 21.338033 1.991698 -20.539571 -0.000002 0.000001 -0.000002 0.000000 -0.000003 -0.000004 0.000002 0.000002 -0.000001 0.038000 -0.085200 0.016200 -0.000003 -0.000003 -0.000002 
